<svg id="Capa_1" enable-background="new 0 0 512.001 512.001" height="512" viewBox="0 0 512.001 512.001" width="512" xmlns="http://www.w3.org/2000/svg"><g><g><g><path d="m290.197 512c-16.475 0-32.809-2.176-48.617-6.472-15.808 4.296-32.141 6.472-48.616 6.472-106.401 0-192.964-90.647-192.964-202.068 0-111.42 86.563-202.067 192.964-202.067 16.475 0 32.809 2.176 48.617 6.472 15.805-4.296 32.138-6.472 48.616-6.472 106.4 0 192.964 90.647 192.964 202.067 0 111.421-86.563 202.068-192.964 202.068z" fill="#fbac5b"/><path d="m290.197 107.865c-16.478 0-32.812 2.176-48.616 6.472 0 0 0 0-.001 0v391.193c15.808 4.296 32.142 6.472 48.617 6.472 106.4 0 192.964-90.648 192.964-202.068 0-111.422-86.563-202.069-192.964-202.069z" fill="#fd8f32"/></g><path d="m213.946 129.841c-10.84 0-18.048-.969-18.835-1.08-2.506-.355-4.404-2.454-4.504-4.99-.028-.685-.618-17.061 3.715-37.495 3.789-17.875 12.314-42.804 31.405-60.063 25.228-22.808 62.061-26.213 81.77-26.213 10.832 0 18.048.969 18.835 1.08 2.504.354 4.402 2.453 4.502 4.99.028.685.618 17.061-3.714 37.495-3.789 17.874-12.314 42.803-31.405 60.062-25.23 22.808-62.06 26.214-81.769 26.214z" fill="#5bc980"/></g><g><g><path d="m324.318 502.877c-38.33.001-72.909-11.736-92.66-31.487-49.033-49.033-83.711-88.176-83.313-145.568.222-31.943 12.708-61.933 35.162-84.446 22.535-22.595 52.516-35.038 84.42-35.038 19.967 0 39.434 4.948 56.816 14.377 17.383-9.429 36.852-14.377 56.818-14.377 31.903 0 61.884 12.443 84.419 35.038 22.453 22.513 34.941 52.504 35.163 84.446.397 57.392-34.28 96.535-83.313 145.568-19.501 19.501-54.068 31.271-92.467 31.485-.347.001-.697.002-1.045.002z" fill="#fddb8d"/><path d="m465.981 241.376c-22.535-22.595-52.516-35.038-84.419-35.038-19.967 0-39.436 4.947-56.818 14.377v282.162c.207 0 .413 0 .62-.002 38.399-.214 72.965-11.983 92.467-31.485 49.033-49.033 83.711-88.176 83.313-145.568-.222-31.942-12.71-61.933-35.163-84.446z" fill="#fbac5b"/></g><g><path d="m324.744 448.673c-3.353 0-6.705-1.12-9.461-3.36-1.77-1.438-43.325-35.728-43.325-80.243s41.556-78.806 43.325-80.243c5.51-4.482 13.409-4.48 18.923 0 1.769 1.438 43.323 35.729 43.323 80.243 0 44.515-41.555 78.805-43.323 80.243-2.756 2.24-6.109 3.36-9.462 3.36z" fill="#ba602b"/><path d="m334.206 284.827c-2.757-2.24-6.11-3.361-9.462-3.361v167.207c3.353 0 6.706-1.12 9.462-3.36 1.769-1.439 43.323-35.728 43.323-80.243s-41.554-78.805-43.323-80.243z" fill="#964c22"/></g><g><path d="m474.671 234.409c-23.922-23.985-55.747-37.194-89.613-37.194-21.195 0-41.862 5.252-60.314 15.262-18.452-10.01-39.117-15.262-60.313-15.262-33.867 0-65.692 13.209-89.614 37.194-23.835 23.898-37.09 55.734-37.325 89.643-.422 60.923 36.39 102.475 88.439 154.524 20.967 20.967 57.673 33.426 98.361 33.425.369 0 .74-.001 1.109-.003 40.762-.227 77.455-12.721 98.156-33.422 52.05-52.05 88.861-93.602 88.44-154.524-.235-33.909-13.491-65.745-37.326-89.643zm-72.326 222.954c-15.016 15.015-44.561 24.454-77.11 24.635l-.943.002h-.001c-32.388.001-61.949-9.44-77.147-24.638-48.337-48.337-79.995-83.716-79.653-133.103.181-25.989 10.326-50.375 28.567-68.666 18.252-18.3 42.534-28.379 68.373-28.379 16.071 0 31.98 4.022 46.008 11.632l14.305 7.76 14.305-7.76c14.027-7.609 29.938-11.632 46.01-11.632 25.838 0 50.12 10.079 68.372 28.38 18.242 18.29 28.388 42.676 28.568 68.665.341 49.388-31.317 84.767-79.654 133.104z" fill="#fb6f44"/><path d="m474.671 234.409c-23.922-23.985-55.747-37.194-89.613-37.194-21.195 0-41.862 5.252-60.313 15.261v34.13l14.304-7.759c14.027-7.609 29.938-11.632 46.01-11.632 25.838 0 50.12 10.079 68.372 28.38 18.242 18.29 28.388 42.676 28.568 68.665.342 49.388-31.316 84.767-79.653 133.103-15.016 15.015-44.561 24.454-77.11 24.635l-.49.001v30c.219 0 .438 0 .657-.002 40.762-.227 77.455-12.721 98.156-33.422 52.05-52.05 88.861-93.602 88.44-154.524-.237-33.908-13.493-65.744-37.328-89.642z" fill="#fc4c1e"/></g></g></g></svg>